<svg width="28" height="36" viewBox="0 0 28 36" fill="none" xmlns="http://www.w3.org/2000/svg">
<path d="M26.2222 6.8889H4.95555C4.672 6.88488 4.3922 6.82347 4.13302 6.70838C3.87385 6.59328 3.64067 6.42689 3.44755 6.21923C3.25442 6.01157 3.10536 5.76695 3.00935 5.50012C2.91333 5.23329 2.87236 4.94977 2.88889 4.66667C2.88751 4.10329 3.10016 3.56041 3.48383 3.14786C3.86751 2.73531 4.39355 2.48389 4.95555 2.44445H26.2222C26.5169 2.44445 26.7995 2.32739 27.0079 2.11901C27.2163 1.91064 27.3333 1.62803 27.3333 1.33334C27.3333 1.03866 27.2163 0.75604 27.0079 0.547666C26.7995 0.339292 26.5169 0.222229 26.2222 0.222229H4.95555C3.80398 0.262558 2.71309 0.748556 1.91294 1.57772C1.1128 2.40688 0.66596 3.5144 0.666666 4.66667C0.65554 4.84798 0.65554 5.02981 0.666666 5.21112C0.655961 5.29968 0.655961 5.38922 0.666666 5.47778V31.3333C0.66596 32.4856 1.1128 33.5931 1.91294 34.4223C2.71309 35.2515 3.80398 35.7375 4.95555 35.7778H26.2222C26.5169 35.7778 26.7995 35.6607 27.0079 35.4524C27.2163 35.244 27.3333 34.9614 27.3333 34.6667V8.07778C27.334 7.7755 27.2195 7.48431 27.0131 7.26346C26.8066 7.04261 26.5239 6.90867 26.2222 6.8889ZM25.1111 33.5556H4.95555C4.39355 33.5161 3.86751 33.2647 3.48383 32.8522C3.10016 32.4396 2.88751 31.8967 2.88889 31.3333V8.61112C3.52065 8.95964 4.23434 9.1323 4.95555 9.11112H25.1111V33.5556Z" fill="white"/>
</svg>
